<?xml version="1.0" ?><svg viewBox="0 0 64 64" xmlns="http://www.w3.org/2000/svg"><title/><g data-name="Day 9" id="7ac377ed-9f27-4ab9-972d-189536cdf71c"><path d="M56,30V53H8V30A24,24,0,0,1,28.5,6.26,24,24,0,0,1,56,30Z" data-name="&lt;Path&gt;" fill="#1d9eef" id="1d09d8aa-1146-4796-9434-cca33f8321fc"/><path d="M49,30V53H8V30A24,24,0,0,1,28.5,6.26,24,24,0,0,1,49,30Z" data-name="&lt;Path&gt;" fill="#1daeef" id="cdef7c3f-6c83-4be0-a586-3969809267fd"/><path d="M18,53V30a24.13,24.13,0,0,1,.33-4" data-name="&lt;Path&gt;" fill="none" id="0c5bfec8-46fc-41bc-a739-4ec030a49560" stroke="#001c63" stroke-linecap="round" stroke-linejoin="round" stroke-width="2"/><circle cx="33" cy="34" data-name="&lt;Path&gt;" fill="#3f87bf" id="20633fb0-5841-46bc-9570-a4f7c13aa791" r="17"/><path d="M32,6h0A24,24,0,0,1,56,30V53a0,0,0,0,1,0,0H8a0,0,0,0,1,0,0V30A24,24,0,0,1,32,6Z" data-name="&lt;Rectangle&gt;" fill="none" id="a901efa9-3b66-4c8b-ac90-dad95e9429ab" stroke="#001c63" stroke-linecap="round" stroke-linejoin="round" stroke-width="2"/><circle cx="32" cy="32" data-name="&lt;Path&gt;" fill="#8ecfff" id="a345e0c6-25bd-4d30-b47a-c4ead2cce8fc" r="17" stroke="#001c63" stroke-linecap="round" stroke-linejoin="round" stroke-width="2"/><path d="M44.47,32a12.46,12.46,0,1,1-3.2-8.35A12.47,12.47,0,0,1,44.47,32Z" data-name="&lt;Path&gt;" fill="#4dc4e1" id="f9a0f59b-bb2f-4581-ba28-49fbc18b8d95"/><path d="M42.47,29a12.48,12.48,0,0,1-21.74,8.35,12.48,12.48,0,0,1,20.54-13.7A12.45,12.45,0,0,1,42.47,29Z" data-name="&lt;Path&gt;" fill="#4dd7f7" id="2b1bf95a-5b25-4ba4-9aa7-f4f070b1cfd9"/><circle cx="32" cy="32" data-name="&lt;Path&gt;" fill="none" id="2f55af11-1431-4280-9cb0-c4d79814bf5f" r="12.47" stroke="#001c63" stroke-linecap="round" stroke-linejoin="round" stroke-width="2"/><path d="M32,23.53A8.44,8.44,0,0,0,26,26" data-name="&lt;Path&gt;" fill="none" id="5ab6870d-19fd-48fb-84c3-02a31a9ba0a5" stroke="#fff" stroke-linecap="round" stroke-linejoin="round" stroke-width="2"/><rect data-name="&lt;Rectangle&gt;" fill="#8ecfff" height="27" id="a3447905-9dad-4631-8794-4be8c0cad7f9" rx="2.37" ry="2.37" stroke="#001c63" stroke-linecap="round" stroke-linejoin="round" stroke-width="2" width="5" x="5" y="23"/><rect data-name="&lt;Rectangle&gt;" fill="#8ecfff" height="27" id="20236f70-c274-46d1-b91b-f9a62be14cca" rx="2.37" ry="2.37" stroke="#001c63" stroke-linecap="round" stroke-linejoin="round" stroke-width="2" width="5" x="54" y="23"/><polygon data-name="&lt;Path&gt;" fill="#8ecfff" id="622d258c-0926-4966-a32d-0e2a2e3fe324" points="58 60 6 60 8 53 56 53 58 60"/><polygon data-name="&lt;Path&gt;" fill="#1d9eef" id="bf61a048-cba9-4328-ada4-ef0ae994846a" points="58 60 49 60 49 53 56 53 58 60"/><polygon data-name="&lt;Path&gt;" fill="none" id="9e339d70-a0bc-4f4e-9b5f-0d0baefe90a6" points="58 60 6 60 8 53 56 53 58 60" stroke="#001c63" stroke-linecap="round" stroke-linejoin="round" stroke-width="2"/><rect data-name="&lt;Rectangle&gt;" fill="#065dc6" height="5" id="b67e330e-4eee-4237-8602-fb0ff20b8fe0" rx="2.5" ry="2.5" stroke="#001c63" stroke-linecap="round" stroke-linejoin="round" stroke-width="2" width="15" x="24.5" y="4"/><circle cx="12.5" cy="56.5" data-name="&lt;Path&gt;" fill="#4580ff" id="f57afc82-e576-488a-b570-bda8982dd56c" r="1.5" stroke="#001c63" stroke-linecap="round" stroke-linejoin="round"/><circle cx="22.25" cy="56.5" data-name="&lt;Path&gt;" fill="#4580ff" id="39b4215c-9bda-45a4-bfcf-5d62ea12e668" r="1.5" stroke="#001c63" stroke-linecap="round" stroke-linejoin="round"/><circle cx="32" cy="56.5" data-name="&lt;Path&gt;" fill="#4580ff" id="accf5de1-e478-468e-9a6a-33b5c44d506c" r="1.5" stroke="#001c63" stroke-linecap="round" stroke-linejoin="round"/><circle cx="41.75" cy="56.5" data-name="&lt;Path&gt;" fill="#4580ff" id="5b1287f2-834a-4e33-8cea-7de000a580b8" r="1.5" stroke="#001c63" stroke-linecap="round" stroke-linejoin="round"/><circle cx="51.5" cy="56.5" data-name="&lt;Path&gt;" fill="#4580ff" id="8eaa8002-5f89-46fa-937f-4f1ebaf933c8" r="1.5" stroke="#001c63" stroke-linecap="round" stroke-linejoin="round"/><line data-name="&lt;Path&gt;" fill="#8ecfff" id="028d2815-82f1-4844-83c8-831a43341da2" stroke="#001c63" stroke-linecap="round" stroke-linejoin="round" stroke-width="2" x1="8" x2="8" y1="23" y2="6"/><circle cx="8" cy="8" data-name="&lt;Path&gt;" fill="#00d07c" id="bfc6f032-1ad5-451e-abe6-67a6853ad792" r="3" stroke="#001c63" stroke-linecap="round" stroke-linejoin="round" stroke-width="2"/></g></svg>